<?xml version="1.0" encoding="utf-8"?>
<!-- Generator: Adobe Illustrator 25.2.1, SVG Export Plug-In . SVG Version: 6.00 Build 0)  -->
<svg version="1.1" id="图层_1" xmlns="http://www.w3.org/2000/svg" xmlns:xlink="http://www.w3.org/1999/xlink" x="0px" y="0px"
	 viewBox="0 0 1024 1024" style="enable-background:new 0 0 1024 1024;" xml:space="preserve">
<style type="text/css">
	.st0{fill:#040000;fill-opacity:0;}
	.st1{fill:#040000;}
</style>
<g>
	<g>
		<g>
			<rect x="76.2" y="11.6" class="st0" width="871.7" height="1001.9"/>
			<path class="st1" d="M516,1013.5l-435.8-247l-4-500.9L508,11.6l435.8,247l4,500.9L516,1013.5z M113.1,747.2l402.6,228.1
				l398.9-234.6l-3.7-462.8L508.3,49.8L109.4,284.4L113.1,747.2z"/>
			<path class="st1" d="M515.6,957.9L128.1,738.3L124.5,293L508.4,67.2l2.8,1.6l384.7,218l0,3.2l3.6,442.2l-2.7,1.6L515.6,957.9z
				 M139.1,731.9l376.4,213.3l373-219.3l-3.5-432.7L508.5,79.9l-373,219.3L139.1,731.9z"/>
		</g>
	</g>
	<g transform="translate(0,0)">
		<g transform="scale(1)">
			<g>
				<path class="st1" d="M346.3,354.7l-2.8-1.3c-1.1-1.3-1.2-2.6-0.2-3.8c0.9-1.2,2.1-1.8,3.4-1.8l0,0h59.7c1.6,0,3.6-1.5,5.9-4.4
					c2.3-3,4.6-6.3,6.9-10c2.3-3.7,4.4-7,6.3-10c1.9-3,3.3-4.5,4.4-4.5l0,0c0.8,0,3,1.5,6.7,4.5c3.6,2.9,7.4,6.3,11.4,10
					c3.9,3.6,7.4,7.2,10.5,10.5c3.1,3.3,4.6,5.4,4.6,6.3l0,0c0,0.8-0.5,1.6-1.6,2.2c-1.1,0.7-2.4,1.2-3.8,1.5
					c-1.5,0.2-3,0.4-4.5,0.6c-1.5,0.1-2.5,0.2-3,0.2l0,0H346.3z M481.3,511.2l-2.8-1.3c-0.8-1.4-0.7-2.3,0.2-2.7
					c0.9-0.4,1.9-0.7,3-1l0,0c3.8-0.6,7.6-0.9,11.4-1c3.8-0.1,7.6-0.1,11.4,0.1l0,0c1.3,0.3,2.8,0.5,4.5,0.7c1.6,0.1,3,0.1,4.4-0.2
					l0,0c1.6-0.5,3-1.4,4.3-2.7c1.2-1.2,2.1-2.5,2.6-3.8l0,0c1.9-4.3,3.1-9.3,3.5-14.8c0.4-5.5,1.1-10.6,1.8-15.2l0,0
					c2.2-12.1,4.3-24.3,6.5-36.5c2.2-12.1,3.9-24.3,5.2-36.5l0,0c0.6-5.2,1.2-10.2,1.7-15.2c0.5-5,0.8-10.1,0.8-15.3l0,0
					c0-1.3,0-3.1,0-5.5c0-2.3-1.1-3.5-3.3-3.5l0,0h-46.6c-1.3,0-2-0.7-2-2c0-1.3,0.7-2,2-2l0,0h129l2.9-1.3
					c4.6-5.4,8.8-10.9,12.5-16.4c3.8-5.6,8-10.8,12.6-15.6l0,0l1.5-0.4c1.9,0.5,5,2.4,9.4,5.5c4.3,3.1,8.7,6.6,13.2,10.4
					c4.4,3.7,8.4,7.5,11.9,11.3c3.5,3.8,5.2,6.6,5.2,8.2l0,0c0,0.5,0,1.3-0.1,2.4c-0.1,1.1-0.8,1.6-1.8,1.6l0,0H588
					c-0.8,0-1.5,0.9-1.8,2.7s-0.7,2.9-1,3.5l0,0c-1.9,7-3.3,14.3-4.1,21.7c-0.8,7.4-1.3,14.8-1.3,22.1l0,0c0,4.9,1.3,7.5,3.8,7.9
					c2.6,0.4,5.8,0.6,9.6,0.6l0,0c6.7,0,12.3-1.2,16.6-3.6c4.3-2.5,7.8-5.2,10.5-8.1c2.7-3,4.9-5.7,6.5-8.1c1.6-2.4,3.2-3.6,4.9-3.6
					l0,0c0.3,0,2.3,1.3,6,4c3.8,2.7,8,5.8,12.4,9.1c4.5,3.4,8.6,6.6,12.4,9.6c3.8,2.9,5.9,4.8,6.5,5.6l0,0c0.8,0.8,0.8,1.8,0,2.9
					c-0.8,1.1-1.8,2.2-3,3.5c-1.2,1.2-2.4,2.4-3.5,3.6c-1.1,1.2-1.6,2.4-1.6,3.5l0,0v62.5c0,1.9,1,2.9,2.9,2.9l0,0
					c1.6,0,3.1-1.2,4.4-3.7c1.3-2.5,2.8-5.2,4.3-8.3c1.5-3.1,2.8-6.1,4.1-9.1c1.2-2.9,2.3-5,3.4-6l0,0c1.1,0,3.1,1.5,6.1,4.6
					c2.9,3.1,6.1,6.6,9.5,10.5c3.4,3.9,6.4,7.7,9.1,11.4c2.7,3.6,4.3,6,4.9,7.2l0,0l-1.6,1.5c-7.3,0-14.6,0.4-22.1,1.3
					c-7.4,0.8-14.8,1.3-22,1.3l0,0c-18.7,0-37.4,0.1-56.2,0.4c-18.8,0.3-37.6,0.4-56.2,0.4l0,0c-11.9,0-23.6-0.1-35.1-0.4
					C504.9,511.3,493.2,511.2,481.3,511.2L481.3,511.2z M424.2,399.2l2.8-1.2c0.6-0.8,1.9-2.7,3.9-5.5c2-2.9,4.1-5.8,6.3-8.9
					c2.2-3.1,4.3-5.8,6.3-8.1c2.1-2.3,3.5-3.5,4.3-3.5l0,0c0.5,0,2.6,1.4,6.1,4.1c3.5,2.7,7.3,5.8,11.3,9.4
					c4.1,3.5,7.9,6.9,11.4,10.1c3.5,3.2,5.6,5.3,6.1,6l0,0l-1.3,1.7c-15.4,1.3-30.8,2.1-46.4,2.4c-15.6,0.2-31.2,0.4-46.8,0.4l0,0
					c-1.9,0-6.1,0.1-12.6,0.2c-6.5,0.1-13.2,0.1-20.3,0.1s-13.4-0.1-19-0.4c-5.7-0.2-8.7-0.6-8.9-1.2l0,0c-0.8-1.4-0.8-2.7,0-3.9
					c0.8-1.2,1.9-1.8,3.2-1.8l0,0H424.2z M523.5,420.3L523.5,420.3c-1.1,0.5-3.1,1-5.9,1.5c-2.9,0.4-5.8,0.7-8.9,0.8
					c-3.1,0.1-5.9,0.1-8.3-0.2c-2.5-0.3-3.7-1.1-3.7-2.4l0,0c0.3-0.3,1.8-0.5,4.5-0.6c2.7-0.1,5.6-0.2,8.7-0.2
					c3.1,0,6.1,0.1,8.8,0.4C521.4,419.8,523,420,523.5,420.3z M570.6,505.9h37.7c2.7,0,4.1-1.4,4.1-4.1l0,0V426
					c0-2.8-1.4-4.1-4.1-4.1l0,0h-25.5c-0.8,0-1.7,1.6-2.5,4.7c-0.8,3.1-1.3,5-1.6,5.8l0,0c-2.9,11.4-5.8,22.6-8.5,33.7
					c-2.7,11.1-4.1,22.4-4.1,34.1l0,0c0,1.9,0.3,3.1,1,3.8C567.8,504.7,568.9,505.3,570.6,505.9L570.6,505.9z M462.3,457.2H343.9
					c-1.4,0-2.1-0.7-2.1-2c0-1.4,0.7-2.1,2.1-2.1l0,0h63.3c1.3,0,2.9-1.4,4.9-4.1c1.9-2.7,3.9-5.7,5.9-8.9c2-3.2,4.2-6.3,6.5-9.3
					c2.3-3,4.7-4.8,7.1-5.3l0,0c0.5,0,2.5,1.3,5.9,3.8c3.4,2.6,7,5.6,10.8,9.1c3.8,3.5,7.3,6.9,10.5,10.1c3.2,3.2,4.9,5.6,4.9,6.9
					l0,0L462.3,457.2z M460.2,511.2H343.9c-1.4,0-2.1-0.7-2.1-2.1l0,0c0-1.3,0.7-2,2.1-2l0,0h62.8c1.6,0,3.5-1.5,5.8-4.5
					c2.2-3,4.3-6.2,6.4-9.7c2.2-3.5,4.3-6.8,6.3-9.7c2-3,3.7-4.5,5-4.5l0,0c1.4,0,2.9,0.3,4.5,0.8l0,0c0.8,0.3,2.8,1.9,6,4.7
					c3.2,2.8,6.7,6,10.4,9.5c3.6,3.5,6.9,6.7,9.7,9.7c2.8,2.9,4.2,4.6,4.2,4.9l0,0c0,0.8-0.7,1.5-2,2
					C461.7,510.9,460.7,511.2,460.2,511.2L460.2,511.2z M641.1,528.2L641.1,528.2c0.6-0.2,1-0.4,1.3-0.4c0.3,0,0.7-0.1,1.3-0.4l0,0
					c0.5-0.3,2.9,1.2,7.2,4.4c4.3,3.2,9,6.9,14,11c5,4,9.5,7.9,13.6,11.7c4.1,3.8,6.1,6.2,6.1,7.3l0,0c0,1.1-0.5,2-1.6,2.8
					c-1.1,0.8-2.2,1.8-3.5,2.9c-1.2,1.1-2.4,2.3-3.4,3.7c-1.1,1.3-1.6,2.9-1.6,4.9l0,0v100.1c0,3-1.8,5.4-5.3,7.1
					c-3.5,1.8-7.6,3.1-12.4,4.1c-4.7,0.9-9.4,1.6-13.9,2.1c-4.6,0.4-7.9,0.6-9.7,0.6l0,0c-2.2,0-3.8,0-4.7,0s-1.8-1.1-2.6-3.2l0,0
					c-0.5-1.6-1-3.8-1.3-6.5c-0.2-2.7-0.5-5.6-0.8-8.7c-0.2-3.1-0.4-6.1-0.6-8.9s-0.2-5.2-0.2-7.1l0,0c-0.5-13-0.7-25.8-0.6-38.2
					c0.1-12.4,0.2-25.1,0.2-38.1l0,0c0-2.4,0.1-6,0.4-10.9c0.3-4.9-0.1-8.2-1.2-10.1l0,0c-0.8-0.3-4.3-0.5-10.4-0.7
					c-6-0.1-12.7-0.2-20.1-0.2c-7.3,0-14.3,0-20.9,0c-6.6,0-11,0-13.2,0l0,0l-2.8,1.3l-2.9,2.8l-1.2,2.9v87.6c0,2.7,1.4,4.1,4.1,4.1
					l0,0c1.6,0,5.5-0.1,11.7-0.2c6.2-0.1,12.8-0.1,19.7-0.1c6.9,0,13.2,0,19,0.1c5.8,0.1,9,0.5,9.6,1l0,0c-0.5,2.2-1.9,3.2-4.1,3.2
					l0,0h-54.7c-0.8,0-1.3,0.5-1.6,1.4c-0.2,1-0.4,1.7-0.4,2.2l0,0c-0.5,2.7-1.5,6.1-2.9,10.2c-1.4,4-2.7,7.2-4.1,9.4l0,0
					c-1.6,2.4-4,4.4-7.1,6c-3.1,1.6-6.5,2.9-10.3,3.8c-3.8,0.9-7.6,1.5-11.4,1.8c-3.8,0.3-7.1,0.4-9.7,0.4l0,0
					c-2.7,0-4.1-1.4-4.1-4.1l0,0c0-26-0.4-51.7-1.3-77.3c-0.8-25.6-1.3-51.3-1.3-77.3l0,0c0-1.1,0.2-2.1,0.7-3
					c0.4-0.9,1.3-1.4,2.7-1.4l0,0c1,0,3.4,1,7.2,3c3.8,2,8.2,4.3,13.2,6.7c5,2.4,10.2,4.6,15.4,6.6c5.3,2,10.2,3,14.8,3l0,0h59.7
					c1,0,2.9-1,5.5-3c2.6-2,5.2-4.4,7.9-7.1c2.7-2.7,5.2-5.3,7.5-7.9C638.3,531.1,640,529.2,641.1,528.2z M407.9,660.8L407.9,660.8
					c-0.5,0.8-1.7,1.4-3.5,1.6c-1.8,0.3-3.7,0.4-5.9,0.4c-2.1,0-4.2-0.1-6.3-0.2c-2-0.1-3.4-0.1-4.2,0.2l0,0c-1.4,0.2-2.6,1.3-3.7,3
					c-1.1,1.8-2,3.7-2.9,5.8c-0.8,2.2-1.5,4.4-2.2,6.7c-0.7,2.3-1.4,4-2.2,5.1l0,0c-3.2,5.2-7.8,8.4-13.8,9.7
					c-5.9,1.4-11.6,2.1-17,2.1l0,0c-4.1,0-6.3-0.5-6.7-1.5c-0.4-0.9-0.6-3.3-0.6-7.1l0,0c0-23.5-0.4-46.9-1.3-70
					c-0.8-23.1-1.2-46.4-1.2-70l0,0c0-2.4,1.4-3.6,4.1-3.6l0,0c4.3,0,8.8,1,13.6,3c4.8,2,9.6,4.3,14.6,6.9c5,2.6,10.2,4.8,15.4,6.9
					c5.3,2.1,10.7,3.1,16.1,3.1l0,0c5.7,0,10.4-1.2,14.4-3.5c3.9-2.3,7.2-4.9,9.7-7.7c2.6-2.8,4.6-5.4,6.3-7.7s3.1-3.5,4.4-3.5l0,0
					c1.7,0,4.6,1.2,8.8,3.6c4.2,2.5,8.4,5.4,12.8,8.8c4.3,3.4,8.1,6.7,11.4,10c3.2,3.2,4.9,5.7,4.9,7.3l0,0c0,2.2-1.3,3.8-3.8,5
					c-2.6,1.2-3.9,3.1-3.9,5.5l0,0v90c0,3.2-1.7,5.8-5,7.7c-3.4,1.9-7.4,3.3-11.9,4.1c-4.6,0.8-9.2,1.3-13.6,1.4
					c-4.4,0.1-7.9,0.2-10.3,0.2l0,0c-2.2,0-3.5-0.8-4.1-2.4l0,0c-0.8-1.9-1.4-5.5-1.6-10.8c-0.2-5.3-0.4-11.5-0.6-18.7
					c-0.1-7.2-0.1-14.8,0-22.9c0.1-8.1,0.3-16,0.4-23.5c0.1-7.6,0.3-14.4,0.4-20.4c0.1-6.1,0.1-10.6,0.1-13.6l0,0c0-2.7-1.3-4-4-4
					l0,0h-28.5c-2.7,0-4,1.3-4,4l0,0v82.8c0,2.1,1,3.4,3,3.8c2,0.4,4.4,0.5,7.3,0.4c2.8-0.1,5.6-0.2,8.5-0.2
					S406.3,659.4,407.9,660.8z"/>
			</g>
		</g>
	</g>
</g>
</svg>
