<?xml version="1.0" encoding="utf-8"?>
<!-- Generator: Adobe Illustrator 25.2.1, SVG Export Plug-In . SVG Version: 6.00 Build 0)  -->
<svg version="1.1" id="图层_1" xmlns="http://www.w3.org/2000/svg" xmlns:xlink="http://www.w3.org/1999/xlink" x="0px" y="0px"
	 viewBox="0 0 1024 1024" style="enable-background:new 0 0 1024 1024;" xml:space="preserve">
<style type="text/css">
	.st0{fill:#71B9F7;}
	.st1{fill:#FD9A64;}
</style>
<path class="st0" d="M682.3,325.9c12.3-5.2,14.6-22.2,7.4-33.5C620.5,183.8,502.6,119,374.1,119C167.8,119,0,286.8,0,493.1
	c0,88.4,30.9,169.7,82.4,233.8L55.1,879.1l163.5-45.9c47.4,21.7,100,34,155.5,34c44.9,0,88.9-7.9,130.8-23.6
	c12.6-4.7,19-18.7,14.3-31.3c0,0-118.9-150.7-31.4-317C534.9,405.7,574.8,371.2,682.3,325.9z"/>
<path class="st1" d="M1023.6,629.7c0-145.6-118.4-264-264-264s-264,118.4-264,264s118.4,264,264,264c43.8,0,85.1-10.8,121.4-29.7
	l127.2,29.7l-17.7-136.2C1011.6,719.6,1023.6,676,1023.6,629.7L1023.6,629.7z"/>
</svg>
