<?xml version="1.0" encoding="utf-8"?>
<!-- Generator: Adobe Illustrator 25.2.1, SVG Export Plug-In . SVG Version: 6.00 Build 0)  -->
<svg version="1.1" id="图层_1" xmlns="http://www.w3.org/2000/svg" xmlns:xlink="http://www.w3.org/1999/xlink" x="0px" y="0px"
	 viewBox="0 0 1024 1024" style="enable-background:new 0 0 1024 1024;" xml:space="preserve">
<style type="text/css">
	.st0{fill:#040000;fill-opacity:0;}
	.st1{fill:#040000;}
</style>
<g>
	<g>
		<g>
			<rect x="84.4" y="7.2" class="st0" width="874.9" height="1005.5"/>
			<path class="st1" d="M525.9,1012.8L88.5,764.9l-4-502.8L517.8,7.2l437.4,247.9l4,502.8L525.9,1012.8z M121.5,745.5l404.1,229
				L926,739l-3.7-464.5l-404.1-229L117.7,281L121.5,745.5z"/>
			<path class="st1" d="M525.5,957L136.5,736.6l-3.6-447L518.3,63l2.8,1.6l386.1,218.8l0,3.2l3.6,443.8L908,732L525.5,957z
				 M147.5,730.1l377.8,214.1l374.3-220.1l-3.5-434.2L518.4,75.7L144.1,295.9L147.5,730.1z"/>
		</g>
	</g>
	<g transform="translate(0,0)">
		<g transform="scale(1)">
			<g>
				<path class="st1" d="M355.5,351.5l-2.8-1.3c-1.1-1.3-1.2-2.6-0.2-3.8c0.9-1.2,2.1-1.9,3.4-1.9l0,0h59.9c1.6,0,3.6-1.5,5.9-4.4
					c2.3-3,4.6-6.3,6.9-10c2.3-3.7,4.4-7,6.4-10c1.9-3,3.4-4.5,4.4-4.5l0,0c0.8,0,3,1.5,6.7,4.5c3.7,3,7.5,6.3,11.4,10
					c3.9,3.7,7.5,7.2,10.6,10.6c3.1,3.4,4.7,5.5,4.7,6.3l0,0c0,0.8-0.5,1.6-1.6,2.2c-1.1,0.7-2.4,1.2-3.8,1.5
					c-1.5,0.2-3,0.4-4.5,0.6c-1.5,0.1-2.5,0.2-3,0.2l0,0H355.5z M491,508.6l-2.8-1.3c-0.8-1.4-0.7-2.3,0.2-2.7c0.9-0.4,1.9-0.7,3-1
					l0,0c3.8-0.6,7.6-0.9,11.4-1c3.8-0.1,7.6-0.1,11.4,0.1l0,0c1.3,0.3,2.8,0.5,4.5,0.7c1.6,0.1,3.1,0.1,4.4-0.2l0,0
					c1.6-0.5,3.1-1.4,4.3-2.7c1.2-1.2,2.1-2.5,2.6-3.8l0,0c1.9-4.3,3.1-9.3,3.5-14.9c0.4-5.5,1.1-10.6,1.9-15.2l0,0
					c2.2-12.2,4.3-24.4,6.5-36.6c2.2-12.2,3.9-24.4,5.3-36.6l0,0c0.6-5.2,1.2-10.3,1.7-15.2c0.5-5,0.8-10.1,0.8-15.3l0,0
					c0-1.3,0-3.2,0-5.5c0-2.3-1.1-3.5-3.3-3.5l0,0h-46.8c-1.3,0-2-0.7-2-2c0-1.3,0.7-2,2-2l0,0h129.4l2.9-1.3
					c4.6-5.4,8.8-10.9,12.6-16.5c3.8-5.6,8-10.8,12.7-15.7l0,0l1.6-0.4c1.9,0.5,5.1,2.4,9.4,5.5c4.3,3.1,8.8,6.6,13.2,10.4
					c4.4,3.7,8.4,7.5,12,11.3c3.5,3.8,5.3,6.6,5.3,8.2l0,0c0,0.5,0,1.3-0.1,2.4c-0.1,1.1-0.8,1.6-1.9,1.6l0,0h-98.5
					c-0.8,0-1.5,0.9-1.9,2.7c-0.4,1.8-0.7,2.9-1,3.5l0,0c-1.9,7.1-3.3,14.3-4.1,21.8c-0.8,7.5-1.3,14.9-1.3,22.2l0,0
					c0,4.9,1.3,7.5,3.8,7.9c2.6,0.4,5.8,0.6,9.6,0.6l0,0c6.8,0,12.3-1.2,16.7-3.6c4.3-2.5,7.9-5.2,10.6-8.1c2.7-3,4.9-5.7,6.5-8.1
					c1.6-2.4,3.3-3.6,4.9-3.6l0,0c0.3,0,2.3,1.3,6.1,4c3.8,2.7,8,5.8,12.4,9.2c4.5,3.4,8.6,6.6,12.4,9.6c3.8,3,6,4.8,6.5,5.6l0,0
					c0.8,0.8,0.8,1.8,0,2.9c-0.8,1.1-1.9,2.2-3,3.5c-1.2,1.2-2.4,2.4-3.5,3.6c-1.1,1.2-1.6,2.4-1.6,3.5l0,0v62.7
					c0,1.9,1,2.9,2.9,2.9l0,0c1.6,0,3.1-1.2,4.4-3.7s2.8-5.3,4.3-8.4c1.5-3.1,2.8-6.2,4.1-9.2c1.2-3,2.3-5,3.4-6.1l0,0
					c1.1,0,3.1,1.6,6.1,4.7c3,3.1,6.1,6.6,9.5,10.6c3.4,3.9,6.5,7.7,9.2,11.4s4.3,6,4.9,7.2l0,0l-1.6,1.6c-7.3,0-14.7,0.4-22.2,1.3
					c-7.5,0.8-14.8,1.3-22.1,1.3l0,0c-18.7,0-37.5,0.1-56.4,0.4c-18.9,0.3-37.7,0.4-56.4,0.4l0,0c-11.9,0-23.7-0.1-35.2-0.4
					C514.8,508.8,503,508.6,491,508.6L491,508.6z M433.7,396.2l2.8-1.2c0.6-0.8,1.9-2.7,3.9-5.5c2-2.9,4.1-5.8,6.3-9
					c2.2-3.2,4.3-5.9,6.3-8.1c2.1-2.3,3.5-3.5,4.3-3.5l0,0c0.5,0,2.6,1.4,6.1,4.1c3.5,2.7,7.3,5.8,11.3,9.4
					c4.1,3.5,7.9,6.9,11.4,10.1c3.6,3.3,5.6,5.3,6.1,6.1l0,0l-1.3,1.7c-15.4,1.3-31,2.1-46.6,2.4c-15.6,0.2-31.3,0.4-47,0.4l0,0
					c-1.9,0-6.1,0.1-12.7,0.2c-6.5,0.1-13.3,0.1-20.4,0.1c-7.1,0-13.4-0.1-19.1-0.4c-5.7-0.2-8.7-0.6-9-1.2l0,0
					c-0.8-1.4-0.8-2.7,0-3.9c0.8-1.2,1.9-1.9,3.3-1.9l0,0H433.7z M533.5,417.4L533.5,417.4c-1.1,0.5-3.1,1-5.9,1.5
					c-2.9,0.4-5.8,0.7-9,0.8c-3.1,0.1-5.9,0.1-8.4-0.2c-2.5-0.3-3.7-1.1-3.7-2.4l0,0c0.3-0.3,1.8-0.5,4.5-0.6
					c2.7-0.1,5.6-0.2,8.7-0.2c3.2,0,6.1,0.1,8.8,0.4C531.3,416.9,532.9,417.1,533.5,417.4z M580.7,503.3h37.8c2.7,0,4.1-1.4,4.1-4.1
					l0,0v-76.1c0-2.8-1.4-4.1-4.1-4.1l0,0h-25.6c-0.8,0-1.7,1.6-2.5,4.7c-0.8,3.1-1.3,5.1-1.6,5.8l0,0c-3,11.4-5.8,22.7-8.5,33.8
					c-2.7,11.1-4.1,22.5-4.1,34.2l0,0c0,1.9,0.3,3.2,1,3.8C577.8,502.1,579,502.8,580.7,503.3L580.7,503.3z M472,454.5H353.1
					c-1.4,0-2.1-0.7-2.1-2c0-1.4,0.7-2.1,2.1-2.1l0,0h63.5c1.3,0,3-1.4,4.9-4.1s3.9-5.7,5.9-9c2-3.3,4.2-6.4,6.5-9.3
					c2.3-3,4.7-4.8,7.1-5.3l0,0c0.5,0,2.5,1.3,5.9,3.8c3.4,2.6,7,5.6,10.8,9.2c3.8,3.5,7.3,6.9,10.6,10.1c3.3,3.3,4.9,5.6,4.9,7l0,0
					L472,454.5z M469.9,508.6H353.1c-1.4,0-2.1-0.7-2.1-2.1l0,0c0-1.3,0.7-2,2.1-2l0,0h63.1c1.6,0,3.6-1.5,5.8-4.5
					c2.2-3,4.3-6.3,6.4-9.8c2.2-3.6,4.3-6.8,6.4-9.8c2-3,3.7-4.5,5-4.5l0,0c1.4,0,2.9,0.3,4.5,0.8l0,0c0.8,0.3,2.8,1.9,6.1,4.7
					c3.3,2.8,6.7,6,10.4,9.5c3.7,3.5,6.9,6.8,9.8,9.8c2.8,3,4.2,4.6,4.2,4.9l0,0c0,0.8-0.7,1.5-2,2
					C471.4,508.3,470.4,508.6,469.9,508.6L469.9,508.6z M651.4,525.7L651.4,525.7c0.6-0.2,1-0.4,1.3-0.4c0.3,0,0.7-0.1,1.3-0.4l0,0
					c0.5-0.3,3,1.2,7.3,4.4c4.3,3.3,9,6.9,14.1,11c5,4,9.6,8,13.6,11.8c4.1,3.8,6.1,6.2,6.1,7.3l0,0c0,1.1-0.5,2-1.6,2.8
					c-1.1,0.8-2.2,1.8-3.5,2.9s-2.4,2.3-3.4,3.7c-1.1,1.3-1.6,3-1.6,4.9l0,0v100.5c0,3-1.8,5.4-5.3,7.1c-3.5,1.8-7.6,3.1-12.4,4.1
					c-4.7,0.9-9.4,1.6-14,2.1c-4.6,0.4-7.9,0.6-9.8,0.6l0,0c-2.2,0-3.8,0-4.7,0s-1.8-1.1-2.6-3.3l0,0c-0.5-1.6-1-3.8-1.3-6.5
					c-0.2-2.7-0.5-5.6-0.8-8.7c-0.2-3.1-0.4-6.1-0.6-9c-0.1-2.9-0.2-5.2-0.2-7.1l0,0c-0.5-13.1-0.7-25.9-0.6-38.3
					c0.1-12.4,0.2-25.2,0.2-38.3l0,0c0-2.4,0.1-6.1,0.4-11c0.3-4.9-0.1-8.3-1.2-10.1l0,0c-0.8-0.3-4.3-0.5-10.4-0.7
					c-6.1-0.1-12.8-0.2-20.1-0.2c-7.4,0-14.3,0-20.9,0c-6.7,0-11.1,0-13.2,0l0,0l-2.8,1.3l-2.9,2.8l-1.2,2.9v87.9
					c0,2.7,1.4,4.1,4.1,4.1l0,0c1.6,0,5.5-0.1,11.8-0.2c6.3-0.1,12.9-0.1,19.8-0.1s13.3,0,19.1,0.1c5.9,0.1,9.1,0.5,9.6,1l0,0
					c-0.5,2.2-1.9,3.3-4.1,3.3l0,0h-54.9c-0.8,0-1.3,0.5-1.6,1.4c-0.2,1-0.4,1.7-0.4,2.2l0,0c-0.5,2.7-1.5,6.1-2.9,10.2
					c-1.4,4-2.7,7.2-4.1,9.4l0,0c-1.6,2.4-4,4.4-7.1,6.1c-3.1,1.6-6.6,2.9-10.4,3.8c-3.8,0.9-7.6,1.6-11.4,1.9
					c-3.8,0.3-7.1,0.4-9.8,0.4l0,0c-2.7,0-4.1-1.4-4.1-4.1l0,0c0-26.1-0.4-51.9-1.3-77.6s-1.3-51.5-1.3-77.6l0,0
					c0-1.1,0.2-2.1,0.7-3c0.4-0.9,1.3-1.4,2.7-1.4l0,0c1,0,3.5,1,7.3,3c3.8,2,8.3,4.3,13.2,6.7c5,2.4,10.2,4.6,15.5,6.7
					c5.3,2,10.2,3,14.9,3l0,0h59.9c1,0,2.9-1,5.5-3c2.6-2,5.2-4.4,7.9-7.1c2.7-2.7,5.2-5.4,7.5-7.9
					C648.7,528.6,650.3,526.7,651.4,525.7z M417.4,658.8L417.4,658.8c-0.5,0.8-1.7,1.4-3.5,1.6c-1.8,0.3-3.7,0.4-5.9,0.4
					c-2.1,0-4.2-0.1-6.3-0.2c-2-0.1-3.4-0.1-4.2,0.2l0,0c-1.4,0.2-2.6,1.3-3.7,3s-2,3.7-2.9,5.8c-0.8,2.2-1.5,4.5-2.2,6.7
					c-0.7,2.3-1.4,4-2.2,5.1l0,0c-3.3,5.2-7.9,8.4-13.8,9.8c-6,1.4-11.7,2.1-17.1,2.1l0,0c-4.1,0-6.3-0.5-6.7-1.5
					c-0.4-0.9-0.6-3.3-0.6-7.1l0,0c0-23.6-0.4-47-1.3-70.2c-0.8-23.2-1.2-46.6-1.2-70.2l0,0c0-2.4,1.4-3.6,4.1-3.6l0,0
					c4.3,0,8.9,1,13.6,3c4.8,2,9.7,4.3,14.7,7c5,2.6,10.2,4.9,15.5,6.9c5.3,2.1,10.7,3.1,16.1,3.1l0,0c5.7,0,10.5-1.2,14.4-3.5
					c3.9-2.3,7.2-4.9,9.8-7.8c2.6-2.8,4.7-5.4,6.3-7.7c1.6-2.3,3.1-3.5,4.4-3.5l0,0c1.7,0,4.6,1.2,8.8,3.6c4.2,2.5,8.5,5.4,12.8,8.8
					c4.3,3.4,8.1,6.7,11.4,10c3.3,3.3,4.9,5.7,4.9,7.3l0,0c0,2.2-1.3,3.8-3.8,5c-2.6,1.2-3.9,3.1-3.9,5.6l0,0V669
					c0,3.3-1.7,5.8-5,7.7c-3.4,1.9-7.4,3.3-12,4.1c-4.6,0.8-9.2,1.3-13.7,1.4c-4.4,0.1-7.9,0.2-10.4,0.2l0,0c-2.2,0-3.5-0.8-4.1-2.4
					l0,0c-0.8-1.9-1.4-5.5-1.6-10.8c-0.2-5.3-0.4-11.5-0.6-18.7c-0.1-7.2-0.1-14.9,0-23c0.1-8.1,0.3-16,0.4-23.6
					c0.1-7.6,0.3-14.4,0.4-20.5c0.1-6.1,0.1-10.7,0.1-13.7l0,0c0-2.7-1.3-4-4-4l0,0h-28.6c-2.7,0-4,1.3-4,4l0,0v83.1
					c0,2.1,1,3.4,3,3.8c2,0.4,4.5,0.5,7.3,0.4c2.8-0.1,5.6-0.2,8.5-0.2C413.5,656.7,415.8,657.4,417.4,658.8z"/>
			</g>
		</g>
	</g>
</g>
</svg>
